<?xml version="1.0" encoding="UTF-8" standalone="no"?>
<!-- Created with Inkscape (http://www.inkscape.org/) -->

<svg
   xmlns:dc="http://purl.org/dc/elements/1.1/"
   xmlns:cc="http://creativecommons.org/ns#"
   xmlns:rdf="http://www.w3.org/1999/02/22-rdf-syntax-ns#"
   xmlns:svg="http://www.w3.org/2000/svg"
   xmlns="http://www.w3.org/2000/svg"
   xmlns:sodipodi="http://sodipodi.sourceforge.net/DTD/sodipodi-0.dtd"
   xmlns:inkscape="http://www.inkscape.org/namespaces/inkscape"
   width="102.05165mm"
   height="109.74915mm"
   viewBox="0 0 102.05165 109.74915"
   version="1.1"
   id="svg8820"
   inkscape:version="0.92.1 r15371"
   sodipodi:docname="lasagna.svg">
  <defs
     id="defs8814" />
  <sodipodi:namedview
     id="base"
     pagecolor="#ffffff"
     bordercolor="#666666"
     borderopacity="1.0"
     inkscape:pageopacity="0.0"
     inkscape:pageshadow="2"
     inkscape:zoom="0.56860569"
     inkscape:cx="183.66694"
     inkscape:cy="216.89185"
     inkscape:document-units="mm"
     inkscape:current-layer="layer1"
     showgrid="false"
     fit-margin-top="0"
     fit-margin-left="0"
     fit-margin-right="0"
     fit-margin-bottom="0"
     showguides="false"
     inkscape:window-width="1366"
     inkscape:window-height="706"
     inkscape:window-x="-8"
     inkscape:window-y="-8"
     inkscape:window-maximized="1" />
  <metadata
     id="metadata8817">
    <rdf:RDF>
      <cc:Work
         rdf:about="">
        <dc:format>image/svg+xml</dc:format>
        <dc:type
           rdf:resource="http://purl.org/dc/dcmitype/StillImage" />
        <dc:title />
      </cc:Work>
    </rdf:RDF>
  </metadata>
  <g
     inkscape:label="Layer 1"
     inkscape:groupmode="layer"
     id="layer1"
     transform="translate(-45.045865,-75.114898)">
    <g
       id="g10568">
      <g
         id="g9425">
        <path
           inkscape:connector-curvature="0"
           id="path9375"
           d="m 78.934403,128.85472 c -2.800535,10.85752 -11.783663,18.61447 -15.471049,29.07781 -2.300503,5.18277 -4.317951,11.56062 -1.374846,16.89769 2.812904,3.80858 7.900951,1.14914 11.706951,1.06378 4.166758,-0.94767 6.573136,4.94118 10.590312,1.65893 2.659649,-1.2374 5.674779,-4.5245 8.741178,-2.52353 1.774594,3.7646 4.69278,1.11144 7.121001,-0.11227 2.16374,1.92087 2.91921,7.84112 7.2354,4.90632 1.889,-0.77694 4.03736,-3.94121 4.79312,-0.57566 2.96932,4.57435 9.45061,-3.45591 10.01773,2.66237 2.02818,3.55372 7.40271,1.85737 8.41875,-1.66759 1.36401,-5.53493 4.79461,-10.3394 6.56619,-15.7735 2.03755,-4.82249 1.76784,-10.14435 3.46055,-15.05538 1.37263,-5.39381 3.31174,-10.63754 5.33198,-15.79713 0.42748,-3.95712 -4.15238,-5.59493 -7.24755,-6.35408 -3.72868,-1.05131 -7.83438,-0.57001 -11.20597,-2.76996 -4.32106,-2.24555 -9.32353,-5.69403 -14.3311,-3.3717 -3.46746,-0.67395 -7.24449,-3.52455 -11.20566,-4.0851 -3.998907,-0.89647 -8.014956,-1.96494 -12.093008,-2.3198 -4.905007,0.22078 -6.539377,5.62468 -8.220005,9.35362 -0.763284,1.6901 -1.59752,3.38399 -2.833974,4.78518 z"
           style="fill:#ffdea7;fill-opacity:1;stroke:#ebc48d;stroke-width:2;stroke-linecap:butt;stroke-linejoin:miter;stroke-miterlimit:4;stroke-dasharray:none;stroke-opacity:1" />
        <path
           inkscape:connector-curvature="0"
           id="path9381"
           d="m 74.952302,123.59327 c -2.800535,10.85758 -11.783663,18.61453 -15.471049,29.07787 -2.300503,5.18277 -4.317951,11.56062 -1.374846,16.89769 2.812904,3.80858 7.900951,1.14914 11.706951,1.06378 4.166758,-0.94767 6.573136,4.94118 10.590312,1.65893 2.659649,-1.2374 5.674779,-4.5245 8.741178,-2.52353 1.774594,3.7646 4.69278,1.11144 7.121005,-0.11227 2.163726,1.92087 2.919183,7.84112 7.235397,4.90632 1.88901,-0.77694 4.03738,-3.94121 4.79314,-0.57566 2.96933,4.57435 9.45062,-3.45591 10.01774,2.66237 2.02818,3.55372 7.40271,1.85737 8.41875,-1.66759 1.36401,-5.53493 4.79462,-10.3394 6.5662,-15.7735 2.03755,-4.82249 1.76784,-10.14435 3.46055,-15.05538 1.37263,-5.39381 3.31174,-10.63754 5.33197,-15.79717 0.42748,-3.95714 -4.15238,-5.59495 -7.24754,-6.35411 -3.72868,-1.05131 -7.83439,-0.57001 -11.20598,-2.76998 -4.32106,-2.24555 -9.32353,-5.69405 -14.3311,-3.37171 -3.46749,-0.67395 -7.24454,-3.52455 -11.205696,-4.0851 -3.998902,-0.89647 -8.014951,-1.96494 -12.093003,-2.3198 -4.905007,0.22077 -6.539377,5.62467 -8.220005,9.35363 -0.763284,1.69012 -1.59752,3.38402 -2.833974,4.78521 z"
           style="fill:#ce3830;fill-opacity:1;stroke:#ad463d;stroke-width:2;stroke-linecap:butt;stroke-linejoin:miter;stroke-miterlimit:4;stroke-dasharray:none;stroke-opacity:1" />
        <path
           style="fill:#ffdea7;fill-opacity:1;stroke:#ebc48d;stroke-width:2;stroke-linecap:butt;stroke-linejoin:miter;stroke-miterlimit:4;stroke-dasharray:none;stroke-opacity:1"
           d="m 73.113566,117.21298 c -2.800535,10.85752 -11.783663,18.61447 -15.471049,29.07781 -2.300503,5.18277 -4.317951,11.56062 -1.374846,16.89769 2.812904,3.80858 7.900951,1.14914 11.706951,1.06378 4.166758,-0.94767 6.573136,4.94118 10.590312,1.65893 2.659649,-1.2374 5.674779,-4.5245 8.741178,-2.52353 1.774594,3.7646 4.69278,1.11144 7.121005,-0.11227 2.163727,1.92087 2.919187,7.84112 7.235363,4.90632 1.889,-0.77694 4.03736,-3.94121 4.79312,-0.57566 2.96932,4.57435 9.45061,-3.45591 10.01773,2.66237 2.02818,3.55372 7.40271,1.85737 8.41875,-1.66759 1.36401,-5.53493 4.79461,-10.3394 6.56619,-15.7735 2.03755,-4.82249 1.76784,-10.14435 3.46055,-15.05538 1.37263,-5.39381 3.31174,-10.63754 5.33198,-15.79713 0.42748,-3.95712 -4.15238,-5.59493 -7.24755,-6.35408 -3.72868,-1.05131 -7.83438,-0.57001 -11.20597,-2.76996 -4.32106,-2.24555 -9.32353,-5.69403 -14.3311,-3.3717 -3.46746,-0.67395 -7.24449,-3.52455 -11.205632,-4.0851 -3.998902,-0.89647 -8.014951,-1.96494 -12.093003,-2.3198 -4.905007,0.22078 -6.539377,5.62468 -8.220005,9.35362 -0.763284,1.6901 -1.59752,3.38399 -2.833974,4.78518 z"
           id="path9373"
           inkscape:connector-curvature="0" />
        <path
           style="fill:#ce3830;fill-opacity:1;stroke:#ad463d;stroke-width:2;stroke-linecap:butt;stroke-linejoin:miter;stroke-miterlimit:4;stroke-dasharray:none;stroke-opacity:1"
           d="m 69.660632,114.06821 c -2.800535,10.85758 -11.783663,18.61453 -15.471049,29.07787 -2.300503,5.18277 -4.317951,11.56062 -1.374846,16.89769 2.812904,3.80858 7.900951,1.14914 11.706951,1.06378 4.166758,-0.94767 6.573136,4.94118 10.590312,1.65893 2.659649,-1.2374 5.674779,-4.5245 8.741178,-2.52353 1.774594,3.7646 4.69278,1.11144 7.121005,-0.11227 2.163727,1.92087 2.919183,7.84112 7.235379,4.90632 1.888998,-0.77694 4.037368,-3.94121 4.793128,-0.57566 2.96933,4.57435 9.45062,-3.45591 10.01774,2.66237 2.02818,3.55372 7.40271,1.85737 8.41875,-1.66759 1.36401,-5.53493 4.79462,-10.3394 6.5662,-15.7735 2.03755,-4.82249 1.76784,-10.14435 3.46055,-15.05538 1.37263,-5.39381 3.31174,-10.63754 5.33197,-15.79717 0.42748,-3.95714 -4.15238,-5.59495 -7.24754,-6.35411 -3.72868,-1.05131 -7.83439,-0.57001 -11.20598,-2.76998 -4.32106,-2.24555 -9.32353,-5.69405 -14.3311,-3.37171 -3.46749,-0.67395 -7.244519,-3.52455 -11.205666,-4.0851 -3.998902,-0.89647 -8.014951,-1.96494 -12.093003,-2.319797 -4.905007,0.220767 -6.539377,5.624667 -8.220005,9.353627 -0.763284,1.69012 -1.59752,3.38402 -2.833974,4.78521 z"
           id="path9379"
           inkscape:connector-curvature="0" />
        <path
           inkscape:connector-curvature="0"
           id="path9371"
           d="m 67.821896,104.5129 c -2.800535,10.85752 -11.783663,18.61447 -15.471049,29.07781 -2.300503,5.18277 -4.317951,11.56062 -1.374846,16.89769 2.812904,3.80858 7.900951,1.14914 11.706951,1.06378 4.166758,-0.94767 6.573136,4.94118 10.590312,1.65893 2.659649,-1.2374 5.674779,-4.5245 8.741178,-2.52353 1.774594,3.7646 4.69278,1.11144 7.121005,-0.11227 2.163727,1.92087 2.919187,7.84112 7.235354,4.90632 1.888991,-0.77694 4.037339,-3.94121 4.793099,-0.57566 2.96932,4.57435 9.45061,-3.45591 10.01773,2.66237 2.02818,3.55372 7.40271,1.85737 8.41875,-1.66759 1.36401,-5.53493 4.79461,-10.3394 6.56619,-15.7735 2.03755,-4.82249 1.76784,-10.14435 3.46055,-15.05538 1.37263,-5.39381 3.31174,-10.63754 5.33198,-15.79713 0.42748,-3.95712 -4.15238,-5.59493 -7.24755,-6.35408 -3.72868,-1.05131 -7.83438,-0.57001 -11.20597,-2.76996 -4.32106,-2.245538 -9.32353,-5.694 -14.3311,-3.371679 -3.467451,-0.673948 -7.24446,-3.52453 -11.205602,-4.085075 -3.998902,-0.896467 -8.014951,-1.964927 -12.093003,-2.319791 -4.905007,0.220776 -6.539377,5.624645 -8.220005,9.353568 -0.763284,1.690097 -1.59752,3.383987 -2.833974,4.785177 z"
           style="fill:#ffdea7;fill-opacity:1;stroke:#ebc48d;stroke-width:2;stroke-linecap:butt;stroke-linejoin:miter;stroke-miterlimit:4;stroke-dasharray:none;stroke-opacity:1" />
        <path
           inkscape:connector-curvature="0"
           id="path9377"
           d="M 65.956463,98.722287 C 63.155928,109.57986 54.1728,117.33681 50.485414,127.80015 c -2.300503,5.18277 -4.317951,11.56062 -1.374846,16.89769 2.812904,3.80858 7.900951,1.14914 11.706951,1.06378 4.166758,-0.94767 6.573136,4.94118 10.590312,1.65893 2.659649,-1.2374 5.674779,-4.5245 8.741178,-2.52353 1.774594,3.7646 4.69278,1.11144 7.121005,-0.11227 2.163727,1.92087 2.919187,7.84112 7.235376,4.90632 1.889,-0.77694 4.037356,-3.94121 4.793116,-0.57566 2.969324,4.57435 9.450614,-3.45591 10.017734,2.66237 2.02818,3.55372 7.40271,1.85737 8.41875,-1.66759 1.36401,-5.53493 4.79462,-10.3394 6.5662,-15.7735 2.03755,-4.82249 1.76784,-10.14435 3.46055,-15.05538 1.37263,-5.39381 3.31174,-10.63754 5.33197,-15.79717 0.42748,-3.957137 -4.15238,-5.594935 -7.24754,-6.354089 -3.72868,-1.051308 -7.83439,-0.57001 -11.20598,-2.769963 -4.32106,-2.245542 -9.32353,-5.694017 -14.3311,-3.371694 -3.467469,-0.67395 -7.244495,-3.524532 -11.205645,-4.085077 -3.998902,-0.896467 -8.014951,-1.964927 -12.093003,-2.319791 -4.905007,0.220776 -6.539377,5.624645 -8.220005,9.353582 -0.763284,1.690105 -1.59752,3.383996 -2.833974,4.785179 z"
           style="fill:#ce3830;fill-opacity:1;stroke:#ad463d;stroke-width:2;stroke-linecap:butt;stroke-linejoin:miter;stroke-miterlimit:4;stroke-dasharray:none;stroke-opacity:1" />
        <path
           style="fill:#ffdea7;fill-opacity:1;stroke:#ebc48d;stroke-width:2;stroke-linecap:butt;stroke-linejoin:miter;stroke-miterlimit:4;stroke-dasharray:none;stroke-opacity:1"
           d="m 64.368962,90.255615 c -2.800535,10.857525 -11.783663,18.614475 -15.471049,29.077815 -2.300503,5.18277 -4.317951,11.56062 -1.374846,16.89769 2.812904,3.80858 7.900951,1.14914 11.706951,1.06378 4.166758,-0.94767 6.573136,4.94118 10.590312,1.65893 2.659649,-1.2374 5.674779,-4.5245 8.741178,-2.52353 1.774594,3.7646 4.69278,1.11144 7.121005,-0.11227 2.163727,1.92087 2.919187,7.84112 7.235376,4.90632 1.889,-0.77694 4.037356,-3.94121 4.793117,-0.57566 2.969314,4.57435 9.450604,-3.45591 10.017724,2.66237 2.02818,3.55372 7.40271,1.85737 8.41875,-1.66759 1.36401,-5.53493 4.79462,-10.3394 6.5662,-15.7735 2.03755,-4.82249 1.76784,-10.14435 3.46055,-15.05538 1.37263,-5.39381 3.31174,-10.63754 5.33197,-15.797135 0.42748,-3.957119 -4.15238,-5.594922 -7.24754,-6.354076 -3.72868,-1.051308 -7.83439,-0.57001 -11.20598,-2.769963 -4.32106,-2.245542 -9.32353,-5.694017 -14.331092,-3.371694 -3.467468,-0.67395 -7.244494,-3.524532 -11.205644,-4.085077 -3.998902,-0.896467 -8.014951,-1.964927 -12.093003,-2.319791 -4.905007,0.220776 -6.539377,5.624645 -8.220005,9.353582 -0.763284,1.690105 -1.59752,3.383996 -2.833974,4.785179 z"
           id="path9365"
           inkscape:connector-curvature="0" />
        <path
           style="fill:#b83b34;fill-opacity:1;stroke:#9e3939;stroke-width:2;stroke-linecap:round;stroke-linejoin:bevel;stroke-miterlimit:4;stroke-dasharray:none;stroke-dashoffset:0;stroke-opacity:1"
           d="m 64.368962,90.255613 c 2.865752,-0.332398 5.176212,3.421112 1.43957,4.227372 -5.628467,4.534913 -5.306267,12.964305 -10.821619,17.616165 -2.913029,2.7228 -1.632439,9.03224 3.071723,7.99549 5.48261,-1.53583 10.281152,-4.84453 15.375617,-7.31964 5.500463,-0.52317 7.51235,7.15773 13.104638,6.31251 4.494189,0.80007 8.310394,3.63399 10.413062,7.19422 4.422407,1.47711 9.568297,0.78194 13.498747,3.63562 2.80729,4.64558 10.19254,4.22988 11.90799,9.81504 0.5357,5.28045 1.98208,10.42954 3.84673,15.39629 3.01231,3.18599 8.35793,0.90616 8.8504,-3.25486 1.67099,-4.39251 -3.73241,-6.17419 -4.73712,-9.73168 -1.72982,-4.15613 -3.82267,-9.0376 -6.01128,-13.19628 -2.94481,-2.28153 -3.53956,-8.36865 0.62163,-9.65735 4.11119,-1.55622 3.51963,5.8359 7.61403,4.84919 2.93233,-3.44545 -0.4972,-8.65923 -2.31145,-12.08616 -2.0707,-5.44072 -9.28224,-6.03096 -11.60315,-11.33931 -2.56473,-3.840547 -4.09486,-9.66396 -9.31781,-10.575502 -3.46502,-0.670189 -6.81113,4.333836 -9.30886,-0.243454 -2.823142,-2.972936 -7.278138,-4.576113 -11.20224,-2.919983 -5.700223,-2.496345 -11.8515,-0.150247 -17.637137,0.600136 -2.083086,0.276288 -7.726063,-1.169197 -6.793471,2.682186 z"
           id="path9385"
           inkscape:connector-curvature="0" />
        <path
           style="fill:#d9984f;fill-opacity:1;stroke:#e06235;stroke-width:1;stroke-linecap:butt;stroke-linejoin:miter;stroke-opacity:1;stroke-miterlimit:4;stroke-dasharray:none"
           d="m 98.099283,111.77423 c 2.185337,1.16883 4.082707,2.76159 6.034007,4.25869 1.36521,1.04568 3.19962,1.17669 4.46584,2.3337 1.30551,0.52713 1.81266,3.54251 3.00666,2.96066 -0.089,-1.65827 0.52635,-3.58773 -0.76815,-4.95219 -1.00859,-1.25966 -0.98964,-3.16649 -2.45505,-4.01492 -1.87449,-0.17749 -3.71539,-2.47298 -5.57253,-2.76714 -1.28663,-0.85271 -2.956313,-0.12567 -3.289378,1.86438 -0.397883,0.31969 -0.938553,0.31343 -1.421399,0.31682 z"
           id="path9395"
           inkscape:connector-curvature="0"
           sodipodi:nodetypes="ccccccccc" />
        <path
           inkscape:connector-curvature="0"
           id="path9402"
           d="m 95.982615,100.66166 c 2.185337,1.16883 4.082695,2.76159 6.033995,4.25869 1.36521,1.04568 3.19962,1.17669 4.46584,2.3337 1.30551,0.52713 2.39578,2.74072 3.58978,2.15887 -0.089,-1.65827 -0.0568,-2.78594 -1.35127,-4.1504 -1.00859,-1.25966 -0.98964,-3.16649 -2.45505,-4.01492 -1.87449,-0.17749 -3.49672,-1.306737 -5.35386,-1.600897 -1.286627,-0.852704 -3.174971,-1.291901 -3.508036,0.698137 -0.397883,0.31969 -0.938553,0.31343 -1.421399,0.31682 z"
           style="fill:#d9984f;fill-opacity:1;stroke:#e06235;stroke-width:1;stroke-linecap:butt;stroke-linejoin:miter;stroke-opacity:1;stroke-miterlimit:4;stroke-dasharray:none"
           sodipodi:nodetypes="ccccccccc" />
        <path
           style="fill:#d9984f;fill-opacity:1;stroke:#e06235;stroke-width:1;stroke-linecap:butt;stroke-linejoin:miter;stroke-opacity:1;stroke-miterlimit:4;stroke-dasharray:none"
           d="m 67.02421,101.90079 c 2.185337,1.16883 3.936915,1.52246 5.888206,3.01956 1.365201,1.04568 3.199602,1.17669 4.465813,2.3337 1.305504,0.52713 1.812651,3.54251 3.006645,2.96066 -0.089,-1.65827 0.526347,-3.58773 -0.768147,-4.95219 -1.008584,-1.25966 -0.989634,-3.16649 -2.455035,-4.01492 -1.874481,-0.17749 -3.496702,-1.306737 -5.35383,-1.600897 -1.286624,-0.852704 -3.174968,-1.291901 -3.508033,0.698137 -0.397883,0.31969 -0.792773,1.55256 -1.275619,1.55595 z"
           id="path9404"
           inkscape:connector-curvature="0"
           sodipodi:nodetypes="ccccccccc" />
        <path
           inkscape:connector-curvature="0"
           id="path9406"
           d="m 76.932603,112.83257 c 2.185337,1.16883 4.082695,2.76159 6.033986,4.25869 1.365201,1.04568 3.199602,1.17669 4.465813,2.3337 1.305504,0.52713 1.812651,3.54251 3.006645,2.96066 -0.089,-1.65827 0.843829,-6.30524 -0.450665,-7.6697 -1.008584,-1.25966 -1.307116,-0.44898 -2.772517,-1.29741 -1.874481,-0.17749 -3.496702,-1.30674 -5.35383,-1.6009 -1.286624,-0.85271 -3.174968,-1.29191 -3.508033,0.69814 -0.397883,0.31969 -0.938553,0.31343 -1.421399,0.31682 z"
           style="fill:#d9984f;fill-opacity:1;stroke:#e06235;stroke-width:1;stroke-linecap:butt;stroke-linejoin:miter;stroke-opacity:1;stroke-miterlimit:4;stroke-dasharray:none"
           sodipodi:nodetypes="ccccccccc" />
        <path
           sodipodi:nodetypes="ccccccccc"
           style="fill:#d9984f;fill-opacity:1;stroke:#e06235;stroke-width:1;stroke-linecap:butt;stroke-linejoin:miter;stroke-opacity:1;stroke-miterlimit:4;stroke-dasharray:none"
           d="m 74.41345,91.904883 c 2.185337,1.16883 4.082695,2.76159 6.033986,4.25869 1.365201,1.04568 3.199602,1.17669 4.465813,2.3337 1.305504,0.52713 1.812651,3.542517 3.006645,2.960667 -0.089,-1.658277 0.843829,-6.305247 -0.450665,-7.669707 -1.008584,-1.25966 -1.307116,-0.44898 -2.772517,-1.29741 -1.874481,-0.17749 -3.496702,-1.30674 -5.35383,-1.6009 -1.286624,-0.85271 -3.174968,-1.29191 -3.508033,0.69814 -0.397883,0.31969 -0.938553,0.31343 -1.421399,0.31682 z"
           id="path9408"
           inkscape:connector-curvature="0" />
        <path
           style="fill:#689566;fill-opacity:1;stroke:#5a8c4c;stroke-width:1.4;stroke-linecap:butt;stroke-linejoin:miter;stroke-miterlimit:4;stroke-dasharray:none;stroke-opacity:1"
           d="m 92.02721,91.63561 c 0.686587,1.593738 1.705429,3.063032 2.060451,4.785421 -0.708934,0.903048 -2.277307,0.829462 -2.640415,2.053056 -1.211015,0.774795 -1.826377,2.125083 -2.684452,3.224923 -0.448623,0.89485 -0.506849,1.88129 -0.380892,2.84773 -0.277713,0.90786 -0.0099,2.05549 1.137991,1.99636 1.114937,0.24783 1.715597,1.46397 2.8619,1.56864 0.926939,0.0585 1.737252,0.47212 2.678786,0.33323 0.876243,0.0185 1.75976,0.10946 2.597094,0.38015 0.741283,0.88746 2.458357,0.16794 2.324,-0.98577 0.284517,-1.15832 0.345667,-2.36419 0.555457,-3.52904 0.56612,-0.89723 1.14333,-1.76327 1.4012,-2.71682 0.0915,-0.73289 0.6052,-1.1651 0.73852,-1.961612 0.29037,-0.729113 0.61157,-1.54116 0.34746,-2.327848 0.006,-1.871964 0.8727,-6.401712 0.897,-8.2736 -0.35509,-0.105698 -0.77422,0.131819 -0.70305,-0.478003 -0.43695,-0.624368 -1.54872,-0.760253 -1.59104,-1.539148 -0.92159,-0.271646 -1.972175,-0.751941 -2.917139,-0.436171 -0.293509,0.941671 -2.120629,3.819975 -2.978613,4.068507 -0.526933,0.203971 -2.020212,0.40551 -1.794311,0.261527 -0.721362,-0.09956 -1.310537,0.422478 -1.909947,0.728468 z"
           id="path9390"
           inkscape:connector-curvature="0"
           sodipodi:nodetypes="ccccccccccccccccccccc" />
      </g>
    </g>
  </g>
</svg>
